<mxfile host="app.diagrams.net" modified="2024-03-28T03:32:46.653Z" agent="Mozilla/5.0 (Windows NT 10.0; Win64; x64) AppleWebKit/537.36 (KHTML, like Gecko) Chrome/122.0.0.0 Safari/537.36 Edg/122.0.0.0" etag="x-kUyQiADtw0c0mMfroi" version="24.2.0" type="github">
  <diagram name="第 1 页" id="AQz7N-rOJkBzPX_tKmpF">
    <mxGraphModel dx="1386" dy="785" grid="1" gridSize="10" guides="1" tooltips="1" connect="1" arrows="1" fold="1" page="1" pageScale="1" pageWidth="827" pageHeight="1169" math="0" shadow="0">
      <root>
        <mxCell id="0" />
        <mxCell id="1" parent="0" />
        <mxCell id="ewCfJoe8EK8Qc_ZJroZM-17" style="rounded=0;orthogonalLoop=1;jettySize=auto;html=1;exitX=1;exitY=0.3333333333333333;exitDx=0;exitDy=0;exitPerimeter=0;" edge="1" parent="1" source="ewCfJoe8EK8Qc_ZJroZM-5" target="ewCfJoe8EK8Qc_ZJroZM-11">
          <mxGeometry relative="1" as="geometry" />
        </mxCell>
        <mxCell id="ewCfJoe8EK8Qc_ZJroZM-19" style="rounded=0;orthogonalLoop=1;jettySize=auto;html=1;exitX=1;exitY=0.3333333333333333;exitDx=0;exitDy=0;exitPerimeter=0;" edge="1" parent="1" source="ewCfJoe8EK8Qc_ZJroZM-5" target="ewCfJoe8EK8Qc_ZJroZM-18">
          <mxGeometry relative="1" as="geometry" />
        </mxCell>
        <mxCell id="ewCfJoe8EK8Qc_ZJroZM-5" value="活动创建人&lt;div&gt;&lt;br&gt;&lt;/div&gt;" style="shape=umlActor;verticalLabelPosition=bottom;verticalAlign=top;html=1;outlineConnect=0;" vertex="1" parent="1">
          <mxGeometry x="30" y="100" width="30" height="60" as="geometry" />
        </mxCell>
        <mxCell id="ewCfJoe8EK8Qc_ZJroZM-6" value="" style="rounded=0;whiteSpace=wrap;html=1;fillColor=none;" vertex="1" parent="1">
          <mxGeometry x="100" y="40" width="930" height="630" as="geometry" />
        </mxCell>
        <mxCell id="ewCfJoe8EK8Qc_ZJroZM-13" value="新建空白" style="edgeStyle=orthogonalEdgeStyle;rounded=0;orthogonalLoop=1;jettySize=auto;html=1;" edge="1" parent="1" source="ewCfJoe8EK8Qc_ZJroZM-11" target="ewCfJoe8EK8Qc_ZJroZM-12">
          <mxGeometry relative="1" as="geometry" />
        </mxCell>
        <mxCell id="ewCfJoe8EK8Qc_ZJroZM-15" value="" style="rounded=0;orthogonalLoop=1;jettySize=auto;html=1;" edge="1" parent="1" source="ewCfJoe8EK8Qc_ZJroZM-11" target="ewCfJoe8EK8Qc_ZJroZM-14">
          <mxGeometry relative="1" as="geometry" />
        </mxCell>
        <mxCell id="ewCfJoe8EK8Qc_ZJroZM-16" value="模板创建" style="edgeLabel;html=1;align=center;verticalAlign=middle;resizable=0;points=[];" vertex="1" connectable="0" parent="ewCfJoe8EK8Qc_ZJroZM-15">
          <mxGeometry x="-0.0581" y="1" relative="1" as="geometry">
            <mxPoint as="offset" />
          </mxGeometry>
        </mxCell>
        <mxCell id="ewCfJoe8EK8Qc_ZJroZM-11" value="&lt;font style=&quot;font-size: 14px;&quot;&gt;创建活动&lt;/font&gt;" style="ellipse;whiteSpace=wrap;html=1;" vertex="1" parent="1">
          <mxGeometry x="160" y="80" width="120" height="80" as="geometry" />
        </mxCell>
        <mxCell id="ewCfJoe8EK8Qc_ZJroZM-21" value="" style="edgeStyle=orthogonalEdgeStyle;rounded=0;orthogonalLoop=1;jettySize=auto;html=1;" edge="1" parent="1" source="ewCfJoe8EK8Qc_ZJroZM-12" target="ewCfJoe8EK8Qc_ZJroZM-20">
          <mxGeometry relative="1" as="geometry" />
        </mxCell>
        <mxCell id="ewCfJoe8EK8Qc_ZJroZM-12" value="&lt;font style=&quot;font-size: 14px;&quot;&gt;选择活动类型&lt;/font&gt;&lt;div&gt;&lt;font style=&quot;font-size: 14px;&quot;&gt;问卷、签到……&lt;/font&gt;&lt;/div&gt;" style="ellipse;whiteSpace=wrap;html=1;" vertex="1" parent="1">
          <mxGeometry x="380" y="80" width="120" height="80" as="geometry" />
        </mxCell>
        <mxCell id="ewCfJoe8EK8Qc_ZJroZM-14" value="&lt;font style=&quot;font-size: 14px;&quot;&gt;选择模板创建&lt;/font&gt;" style="ellipse;whiteSpace=wrap;html=1;" vertex="1" parent="1">
          <mxGeometry x="380" y="180" width="120" height="80" as="geometry" />
        </mxCell>
        <mxCell id="ewCfJoe8EK8Qc_ZJroZM-18" value="&lt;font style=&quot;font-size: 14px;&quot;&gt;创建系列&lt;/font&gt;" style="ellipse;whiteSpace=wrap;html=1;" vertex="1" parent="1">
          <mxGeometry x="160" y="280" width="120" height="80" as="geometry" />
        </mxCell>
        <mxCell id="ewCfJoe8EK8Qc_ZJroZM-20" value="&lt;span style=&quot;font-size: 14px;&quot;&gt;修改活动配置&lt;/span&gt;&lt;div&gt;&lt;span style=&quot;font-size: 14px;&quot;&gt;名称、时间……&lt;/span&gt;&lt;/div&gt;" style="ellipse;whiteSpace=wrap;html=1;" vertex="1" parent="1">
          <mxGeometry x="600" y="80" width="120" height="80" as="geometry" />
        </mxCell>
        <mxCell id="ewCfJoe8EK8Qc_ZJroZM-22" value="" style="endArrow=classic;html=1;rounded=0;" edge="1" parent="1" source="ewCfJoe8EK8Qc_ZJroZM-14" target="ewCfJoe8EK8Qc_ZJroZM-20">
          <mxGeometry width="50" height="50" relative="1" as="geometry">
            <mxPoint x="370" y="370" as="sourcePoint" />
            <mxPoint x="420" y="320" as="targetPoint" />
          </mxGeometry>
        </mxCell>
      </root>
    </mxGraphModel>
  </diagram>
</mxfile>
